<?xml version="1.0" encoding="utf-8"?>
<!-- Generator: Adobe Illustrator 21.0.1, SVG Export Plug-In . SVG Version: 6.00 Build 0)  -->
<svg version="1.1" id="Layer_1" xmlns="http://www.w3.org/2000/svg" xmlns:xlink="http://www.w3.org/1999/xlink" x="0px" y="0px"
	 viewBox="0 0 402.6 510.8" style="enable-background:new 0 0 402.6 510.8;" xml:space="preserve">
<style type="text/css">
	.Drop_x0020_Shadow{fill:none;}
	.Round_x0020_Corners_x0020_2_x0020_pt{fill:#FFFFFF;stroke:#000000;stroke-miterlimit:10;}
	.Live_x0020_Reflect_x0020_X{fill:none;}
	.Bevel_x0020_Soft{fill:url(#SVGID_1_);}
	.Dusk{fill:#FFFFFF;}
	.Foliage_GS{fill:#FFDD00;}
	.Pompadour_GS{fill-rule:evenodd;clip-rule:evenodd;fill:#44ADE2;}
	.st0{fill:#FEBD3B;}
	.st1{fill:#FAA334;}
	.st2{fill:#D72A53;}
</style>
<linearGradient id="SVGID_1_" gradientUnits="userSpaceOnUse" x1="0" y1="-94.5676" x2="0.7071" y2="-93.8605">
	<stop  offset="0" style="stop-color:#DEDFE3"/>
	<stop  offset="0.1738" style="stop-color:#D8D9DD"/>
	<stop  offset="0.352" style="stop-color:#C9CACD"/>
	<stop  offset="0.5323" style="stop-color:#B4B5B8"/>
	<stop  offset="0.7139" style="stop-color:#989A9C"/>
	<stop  offset="0.8949" style="stop-color:#797C7E"/>
	<stop  offset="1" style="stop-color:#656B6C"/>
</linearGradient>
<g>
	<g>
		<path class="st0" d="M74.6,196c34.9-26.2,78.9-43.5,130.5-44.3c85.6-1.4,160.2-45,193.1-106.6c0.1-0.3-0.1,0.3,0,0
			C359,20.6,312.8,6.8,263.1,6.8C184,6.8,113.3,42.6,66.3,98.8C29,143.4,6.6,200.7,6.6,263.3c0,5.3,0.2,9.2,0.5,14.4
			C22.8,245.1,45.8,217.6,74.6,196z"/>
		<path class="st1" d="M112.3,235.8L112.3,235.8c29.4-26.2,66.6-42.6,110.1-44.3c87.9,0,161.9-62.6,175.8-146.5
			c-33,61.7-107.5,102.6-193.1,103.9c-51.6,0.8-95.6,18.1-130.5,44.3c-28.8,21.7-51.9,51.8-67.4,84.5c1.5,24.4,6.3,46.5,14.2,68.5
			C57.7,281.9,112.3,235.8,112.3,235.8z"/>
		<path class="st2" d="M180.9,385.3c-21.7-15.4-48.4-24.3-77.1-23.7c-23.5,0.5-45.4,7.4-64.1,18.9c1.2-8.7,2.9-17.3,4.9-25.7
			c11.3-47.4,34.5-89.4,67.7-118.9l0,0c0,0-54.7,46.1-91,110.4c1.1,3.2,2.3,6.3,3.5,9.4c3.7,9.4,8,18.5,12.8,27.3
			c-1.8,26.4,4.5,53.5,19.9,77.5c13.2,20.7,31.4,36.3,52.1,46.3c1.9-26.6-4.4-54-19.8-78.1c-9.2-14.5-20.9-26.4-34.1-35.7
			c17.7,8.6,37.6,13.2,58.6,12.7C138.9,405.2,161.7,397.7,180.9,385.3z"/>
	</g>
</g>
</svg>
